# xmcd CD database file
#
# Track frame offsets:
#	150
#	19425
#	35627
#	50028
#	75604
#	93906
#	107783
#	121810
#	138161
#	151437
#	168163
#	181364
#
# Disc length: 3296 seconds
#
# Revision: 0
# Processed by: cddbd v1.5.2PL0 Copyright (c) Steve Scherf et al.
# Submitted via: CDex 1.70beta2
#
DISCID=980cde0c
DTITLE=Samuel James - The Return of Sugar Smallhouse
DYEAR=2006
DGENRE=Blues
TTITLE0=My baby
TTITLE1=Big black Ben
TTITLE2=Excuse blues
TTITLE3=Two tailed creek weasel blues
TTITLE4=Runnin from my baby's gun whilest previously watching butterflies from my porch
TTITLE5=Sneakin back in
TTITLE6=The thief
TTITLE7=Come back to teh country
TTITLE8=Stomp
TTITLE9=Sugar's lazy blues
TTITLE10=The 'Here comes Nina' Country-Ragtime surprise
TTITLE11=Devil's bog
EXTD=YEAR: 2006
EXTT0=
EXTT1=
EXTT2=
EXTT3=
EXTT4=
EXTT5=
EXTT6=
EXTT7=
EXTT8=
EXTT9=
EXTT10=
EXTT11=
PLAYORDER=
